<svg width="86" height="42" viewBox="0 0 86 42" fill="none" xmlns="http://www.w3.org/2000/svg">
<path d="M83.7942 26.7347C82.4432 28.7588 80.3323 31.7106 77.0392 34.5781C75.3505 36.0118 73.4084 37.2769 71.0441 38.2889C68.6799 39.301 66.0623 39.807 63.1915 39.7226C61.756 39.7226 60.3206 39.4696 58.9696 39.1323C57.6186 38.7106 56.2676 38.0359 55.0854 37.1925C54.0722 36.5178 53.2278 35.5901 52.4679 34.5781C54.7477 31.7949 56.352 28.4214 57.5341 24.9636C58.6318 21.3371 59.3073 17.5419 58.8851 13.5781C58.8007 13.072 58.7162 12.566 58.6318 12.06C58.4629 11.554 58.3785 11.048 58.2096 10.5419C57.8719 9.52988 57.2808 8.51784 56.2676 7.7588C55.2543 6.91543 53.9033 6.57807 52.6368 6.83109C51.3702 6.99976 50.2725 7.75879 49.5126 8.51783C48.7526 9.3612 48.246 10.2046 47.8238 11.1323C47.6549 11.554 47.4016 12.06 47.2327 12.4817C47.0639 12.9034 46.895 13.4094 46.8105 13.9154C46.3039 15.7708 46.0506 17.6263 46.0506 19.566C45.9662 23.2769 46.4728 26.9877 47.7394 30.3612C48.1616 31.5419 48.6682 32.6383 49.3437 33.7347C48.4993 34.6624 47.4861 35.5901 46.4728 36.3492C45.2062 37.2769 43.7708 37.9516 42.4198 38.3732C40.9844 38.7949 39.5489 38.9636 38.029 38.9636C36.5092 38.9636 35.0737 38.7106 33.7227 38.3732C30.9363 37.6142 28.4032 36.4335 26.2922 34.8311C21.9859 31.7949 19.1995 27.9998 17.0041 24.6263C14.8932 21.2528 13.4577 18.1323 12.36 15.5178C10.2491 10.2889 9.48916 6.83109 8.98254 4.80699C8.81366 4.04795 8.64479 3.45759 8.56035 3.0359C8.98254 3.28892 9.40473 3.45759 9.82692 3.7106C10.7557 4.21662 11.6001 4.80699 12.4445 5.31301C14.1332 6.32506 15.6531 7.25277 16.9197 8.01181C19.4528 9.52988 21.1416 10.3732 21.3104 10.0359C21.4793 9.78289 20.2127 8.4335 17.9329 6.57807C16.7508 5.65036 15.3998 4.55397 13.711 3.37325C12.8667 2.78289 12.0223 2.19253 11.0935 1.60217C10.5869 1.34915 10.1647 1.01181 9.65803 0.758794C9.40472 0.590119 9.15141 0.50578 8.81366 0.337106C8.30703 0.084092 7.71597 -0.000243355 7.20935 -0.000243399C6.95604 0.0840957 6.61828 0.25277 6.36497 0.421445L6.02723 0.758794L5.77393 1.18048L5.68949 1.34916L5.60505 1.4335L5.43615 1.6865C5.35172 1.85518 5.26729 1.93951 5.18286 2.10819C5.01398 2.3612 4.92955 2.69855 4.76067 2.95156C4.50736 3.54192 4.25405 4.04795 4.00074 4.55397C3.57855 5.65036 3.15637 6.66241 2.81861 7.67445C2.05867 9.69855 1.55204 11.4696 1.04542 12.9877C0.201044 16.0238 -0.221151 17.9636 0.116602 18.1323C0.454355 18.2166 1.38317 16.5299 2.73417 13.6624C3.40967 12.2287 4.16959 10.5419 5.01396 8.60217C5.43615 7.67445 5.85835 6.66241 6.36497 5.65036C6.53385 5.31301 6.70273 4.97566 6.87161 4.63831C6.87161 4.80698 6.87162 5.06 6.95605 5.31301C7.20936 7.50578 7.80041 11.1323 9.82691 16.6986C10.8402 19.4817 12.2756 22.6865 14.5554 26.313C15.6531 28.0841 17.0041 30.0238 18.6084 31.8793C20.2127 33.819 22.2392 35.6745 24.6035 37.3612C26.9677 39.0479 29.8386 40.4817 33.0472 41.3251C34.6516 41.6624 36.3403 41.9998 38.029 41.9998C39.8022 41.9998 41.5754 41.8311 43.3486 41.2407C45.1218 40.6504 46.8106 39.807 48.3304 38.7949C49.3437 38.0359 50.2725 37.1925 51.2013 36.2648C52.0457 37.2769 52.9745 38.1202 53.9877 38.8793C55.4232 39.8913 56.9431 40.566 58.5474 40.9877C60.1517 41.3251 61.756 41.5781 63.2759 41.4937C66.4001 41.4937 69.2709 40.819 71.7196 39.6383C74.1683 38.5419 76.2793 37.0239 77.968 35.5058C81.3455 32.3853 83.2876 29.2648 84.4697 27.072C85.6518 24.8793 86.074 23.5299 85.9896 23.5299C85.7363 23.4455 85.1452 24.6263 83.7942 26.7347ZM48.3304 19.6504C48.4149 17.9636 48.6682 16.1925 49.0904 14.5901C49.597 12.9877 50.1881 11.3853 51.2858 10.3733C51.7924 9.86723 52.299 9.52989 52.8901 9.44555C53.4811 9.36121 53.9877 9.52988 54.4099 9.86723C54.8321 10.2046 55.2543 10.7949 55.5076 11.554C55.6765 11.8913 55.7609 12.313 55.8454 12.6504C55.9298 13.072 56.0143 13.4937 56.0143 13.8311C56.352 17.2046 55.6765 20.7467 54.5788 24.0359C53.65 26.819 52.299 29.5178 50.6102 31.7949C50.2725 31.0359 49.9348 30.2769 49.597 29.5178C48.6682 26.4817 48.246 23.0239 48.3304 19.6504Z" fill="currentColor"/>
</svg>
