<svg width="234" height="49" viewBox="0 0 234 49" fill="none" xmlns="http://www.w3.org/2000/svg">
<path fill-rule="evenodd" clip-rule="evenodd" d="M0 2.20171L9.9453 8.83191C16.6395 13.2947 25.3605 13.2947 32.0547 8.83191C38.0771 4.81699 45.9229 4.81699 51.9453 8.83191C58.6395 13.2947 67.3605 13.2947 74.0547 8.83191C80.0771 4.81699 87.9229 4.81699 93.9453 8.83191C100.639 13.2947 109.361 13.2947 116.055 8.83191C122.077 4.81699 129.923 4.81699 135.945 8.83191C142.639 13.2947 151.361 13.2947 158.055 8.83191L168.555 1.83191C169.014 1.52556 169.138 0.904691 168.832 0.445162C168.526 -0.0143667 167.905 -0.138541 167.445 0.167812L156.945 7.16781C150.923 11.1827 143.077 11.1827 137.055 7.16781C130.361 2.70502 121.639 2.70502 114.945 7.16781C108.923 11.1827 101.077 11.1827 95.0547 7.16781C88.3605 2.70502 79.6395 2.70502 72.9453 7.16781C66.9229 11.1827 59.0771 11.1827 53.0547 7.16781C46.3605 2.70502 37.6395 2.70502 30.9453 7.16781C24.9229 11.1827 17.0771 11.1827 11.0547 7.16781L0.5547 0.167812C0.38394 0.0539716 0.190901 -0.000419101 0 -0.000243718V2.20171Z" fill="currentColor"/>
<path fill-rule="evenodd" clip-rule="evenodd" d="M65 38.2017L74.9453 44.8319C81.6395 49.2947 90.3605 49.2947 97.0547 44.8319C103.077 40.817 110.923 40.817 116.945 44.8319C123.639 49.2947 132.361 49.2947 139.055 44.8319C145.077 40.817 152.923 40.817 158.945 44.8319C165.639 49.2947 174.361 49.2947 181.055 44.8319C187.077 40.817 194.923 40.817 200.945 44.8319C207.639 49.2947 216.361 49.2947 223.055 44.8319L233.555 37.8319C234.014 37.5256 234.138 36.9047 233.832 36.4452C233.526 35.9856 232.905 35.8615 232.445 36.1678L221.945 43.1678C215.923 47.1827 208.077 47.1827 202.055 43.1678C195.361 38.705 186.639 38.705 179.945 43.1678C173.923 47.1827 166.077 47.1827 160.055 43.1678C153.361 38.705 144.639 38.705 137.945 43.1678C131.923 47.1827 124.077 47.1827 118.055 43.1678C111.361 38.705 102.639 38.705 95.9453 43.1678C89.9229 47.1827 82.0771 47.1827 76.0547 43.1678L65.5547 36.1678C65.3839 36.054 65.1909 35.9996 65 35.9998V38.2017Z" fill="currentColor"/>
</svg>
