<svg width="130" height="84" viewBox="0 0 130 84" fill="none" xmlns="http://www.w3.org/2000/svg">
<path fill-rule="evenodd" clip-rule="evenodd" d="M16.916 4.32407C15.1125 10.7674 14.5959 17.5028 15.3955 24.1458C16.1951 30.7888 18.2954 37.2093 21.5763 43.0406C24.8572 48.8719 29.2546 53.9999 34.5173 58.1318C39.78 62.2637 45.8051 65.3186 52.2484 67.122C58.6917 68.9254 65.4272 69.442 72.0702 68.6424C78.7131 67.8428 85.1336 65.7425 90.9649 62.4616C96.7962 59.1807 101.924 54.7833 106.056 49.5206C110.188 44.2579 113.243 38.2329 115.046 31.7895L129.413 35.8107C127.082 44.1407 123.132 51.9299 117.791 58.7336C112.449 65.5374 105.819 71.2223 98.2805 75.4639C90.7417 79.7056 82.4413 82.4208 73.8531 83.4545C65.265 84.4883 56.5573 83.8204 48.2273 81.4889C39.8972 79.1574 32.108 75.2081 25.3043 69.8663C18.5006 64.5245 12.8156 57.895 8.57398 50.3562C4.33236 42.8174 1.61716 34.5169 0.583394 25.9288C-0.450369 17.3406 0.217552 8.63296 2.54902 0.30294L16.916 4.32407Z" fill="currentColor"/>
</svg>
