<svg width="33" height="34" viewBox="0 0 33 34" fill="none" xmlns="http://www.w3.org/2000/svg">
<g clip-path="url(#clip0_811_125)">
<path d="M24.75 8.69867H8.25V25.5403H24.75V8.69867Z" fill="currentColor"/>
<path d="M24.75 25.5403C29.3064 25.5403 33 21.7702 33 17.1195C33 12.4688 29.3064 8.69867 24.75 8.69867C20.1936 8.69867 16.5 12.4688 16.5 17.1195C16.5 21.7702 20.1936 25.5403 24.75 25.5403Z" fill="currentColor"/>
<path d="M16.5 17.1195C21.0564 17.1195 24.75 13.3494 24.75 8.69873C24.75 4.04802 21.0564 0.277893 16.5 0.277893C11.9436 0.277893 8.25 4.04802 8.25 8.69873C8.25 13.3494 11.9436 17.1195 16.5 17.1195Z" fill="currentColor"/>
<path d="M16.5 33.9611C21.0564 33.9611 24.75 30.191 24.75 25.5403C24.75 20.8896 21.0564 17.1195 16.5 17.1195C11.9436 17.1195 8.25 20.8896 8.25 25.5403C8.25 30.191 11.9436 33.9611 16.5 33.9611Z" fill="currentColor"/>
<path d="M8.25 25.5403C12.8064 25.5403 16.5 21.7702 16.5 17.1195C16.5 12.4688 12.8064 8.69867 8.25 8.69867C3.69365 8.69867 0 12.4688 0 17.1195C0 21.7702 3.69365 25.5403 8.25 25.5403Z" fill="currentColor"/>
</g>
<defs>
<clipPath id="clip0_811_125">
<rect width="33" height="34" fill="white"/>
</clipPath>
</defs>
</svg>
