<svg width="89" height="89" viewBox="0 0 89 89" fill="none" xmlns="http://www.w3.org/2000/svg">
<g clip-path="url(#clip0_811_376)">
<mask id="mask0_811_376" style="mask-type:luminance" maskUnits="userSpaceOnUse" x="16" y="16" width="56" height="56">
<path d="M71.129 40.8946C69.4519 25.7622 55.8251 14.8545 40.6926 16.5316C25.5602 18.2088 14.6526 31.8356 16.3297 46.968C18.0068 62.1004 31.6337 73.0081 46.7661 71.331C61.8985 69.6538 72.8062 56.027 71.129 40.8946Z" fill="white"/>
</mask>
<g mask="url(#mask0_811_376)">
<path d="M71.129 40.8946C69.4519 25.7622 55.8251 14.8545 40.6926 16.5316C25.5602 18.2088 14.6526 31.8356 16.3297 46.968C18.0068 62.1004 31.6337 73.0081 46.7661 71.331C61.8985 69.6538 72.8062 56.027 71.129 40.8946Z" fill="#0019FF"/>
<path d="M38.0216 42.4839C39.1565 42.3582 39.8047 39.8027 39.4693 36.7763C39.1338 33.7498 37.9419 31.3983 36.8069 31.5241C35.672 31.6499 35.0239 34.2053 35.3593 37.2318C35.6947 40.2583 36.8867 42.6097 38.0216 42.4839Z" fill="#DBFF00"/>
<path d="M48.9826 41.2691C50.1175 41.1433 50.7656 38.5879 50.4302 35.5614C50.0948 32.5349 48.9028 30.1834 47.7679 30.3092C46.6329 30.435 45.9848 32.9904 46.3202 36.0169C46.6557 39.0434 47.8476 41.3949 48.9826 41.2691Z" fill="#DBFF00"/>
<path fill-rule="evenodd" clip-rule="evenodd" d="M31.5816 47.1248C33.4985 52.607 39.0032 56.243 45.0203 55.5761C51.0373 54.9092 55.6122 50.1561 56.2822 44.3872L58.3359 44.6257C57.5573 51.3304 52.2436 56.8558 45.248 57.6311C38.2524 58.4064 31.8578 54.1787 29.6299 47.8072L31.5816 47.1248Z" fill="#DBFF00"/>
</g>
</g>
<defs>
<clipPath id="clip0_811_376">
<rect width="68.0824" height="68.0824" fill="white" transform="translate(0 24.7576) rotate(-21.3243)"/>
</clipPath>
</defs>
</svg>
