<svg width="125" height="62" viewBox="0 0 125 62" fill="none" xmlns="http://www.w3.org/2000/svg">
<g clip-path="url(#clip0_811_131)">
<path d="M50.6791 31.0618L32.85 50.7638C22.6703 62.0128 23.5371 79.3843 34.7862 89.5641C46.0353 99.7438 63.4068 98.8769 73.5865 87.6279L91.4156 67.9259C101.595 56.6768 100.729 39.3053 89.4794 29.1256C78.2304 18.9458 60.8589 19.8127 50.6791 31.0618Z" fill="white"/>
<path d="M47.3277 75.1831L51.4486 67.6399C54.3307 62.3644 54.4306 56.0418 51.7153 50.7685L50.4414 48.2944L53.03 49.3158C58.5474 51.4926 64.8286 50.7636 69.791 47.3707L76.8864 42.5192L72.7655 50.0624C69.8834 55.3379 69.7835 61.6605 72.4988 66.9338L73.7727 69.4079L71.1841 68.3866C65.6666 66.2098 59.3854 66.9387 54.4231 70.3316L47.3277 75.1831Z" fill="currentColor"/>
<path d="M50.6791 31.0618L32.85 50.7638C22.6703 62.0128 23.5371 79.3843 34.7862 89.5641C46.0353 99.7438 63.4068 98.8769 73.5865 87.6279L91.4156 67.9259C101.595 56.6768 100.729 39.3053 89.4794 29.1256C78.2304 18.9458 60.8589 19.8127 50.6791 31.0618Z" stroke="white"/>
</g>
<defs>
<clipPath id="clip0_811_131">
<rect width="88" height="99" fill="white" transform="translate(31.7227 117.771) rotate(-111.13)"/>
</clipPath>
</defs>
</svg>
