<svg width="20" height="20" viewBox="0 0 20 20" fill="none" xmlns="http://www.w3.org/2000/svg">
<path fill-rule="evenodd" clip-rule="evenodd" d="M10.8236 5.42257C10.8026 5.33035 10.7805 5.23774 10.7572 5.1448C10.0403 2.27648 8.53741 0.181635 7.40031 0.46583C6.26322 0.750024 5.92257 3.30564 6.63945 6.17396C6.67763 6.32672 6.71804 6.4773 6.76051 6.62544C6.54099 6.55143 6.31541 6.48181 6.0846 6.41721C3.23747 5.62034 0.673325 5.88933 0.357418 7.01802C0.0415104 8.14672 2.09347 9.7077 4.9406 10.5046C5.26575 10.5956 5.58721 10.6727 5.90206 10.7362C5.65815 10.9443 5.41506 11.1674 5.17549 11.4045C3.07379 13.4839 2.03831 15.8451 2.86266 16.6782C3.68702 17.5114 6.05905 16.5011 8.16074 14.4217C8.22884 14.3543 8.29582 14.2866 8.36165 14.2187C8.38267 14.3109 8.40479 14.4036 8.42802 14.4965C9.1449 17.3648 10.6478 19.4597 11.7849 19.1755C12.922 18.8913 13.2627 16.3357 12.5458 13.4673C12.4629 13.1358 12.3695 12.8145 12.2674 12.5061C12.6099 12.6341 12.9695 12.7518 13.3428 12.8562C16.1899 13.6531 18.7541 13.3841 19.07 12.2554C19.3859 11.1267 17.3339 9.56576 14.4868 8.76888C14.2096 8.69129 13.935 8.62381 13.665 8.56624C13.7805 8.45967 13.8955 8.34982 14.0098 8.23681C16.1115 6.15738 17.1469 3.79624 16.3226 2.96306C15.4982 2.12988 13.1262 3.14017 11.0245 5.2196C10.9564 5.28698 10.8894 5.35466 10.8236 5.42257Z" fill="currentColor"/>
</svg>
