<svg width="66" height="45" viewBox="0 0 66 45" fill="none" xmlns="http://www.w3.org/2000/svg">
<g clip-path="url(#clip0_811_116)">
<mask id="mask0_811_116" style="mask-type:luminance" maskUnits="userSpaceOnUse" x="10" y="9" width="46" height="46">
<path d="M52.6491 42.4519C58.1783 31.3409 53.6533 17.8512 42.5422 12.322C31.4311 6.79275 17.9415 11.3177 12.4123 22.4288C6.88304 33.5399 11.408 47.0295 22.5191 52.5588C33.6302 58.088 47.1198 53.563 52.6491 42.4519Z" fill="white"/>
</mask>
<g mask="url(#mask0_811_116)">
<path d="M52.6491 42.4519C58.1783 31.3409 53.6533 17.8512 42.5422 12.322C31.4311 6.79275 17.9415 11.3177 12.4123 22.4288C6.88304 33.5399 11.408 47.0295 22.5191 52.5588C33.6302 58.088 47.1198 53.563 52.6491 42.4519Z" fill="#0019FF"/>
<path d="M29.2582 28.9294C30.0915 29.3441 31.6635 27.8788 32.7694 25.6566C33.8752 23.4344 34.0961 21.2967 33.2628 20.882C32.4295 20.4673 30.8574 21.9326 29.7516 24.1548C28.6457 26.3771 28.4248 28.5147 29.2582 28.9294Z" fill="#DBFF00"/>
<path d="M37.305 32.934C38.1384 33.3487 39.7104 31.8834 40.8162 29.6612C41.9221 27.4389 42.143 25.3013 41.3097 24.8866C40.4763 24.4719 38.9043 25.9372 37.7985 28.1594C36.6926 30.3816 36.4717 32.5193 37.305 32.934Z" fill="#DBFF00"/>
<path fill-rule="evenodd" clip-rule="evenodd" d="M22.7967 29.2675C21.6909 33.8707 23.8588 38.7921 28.2768 40.9907C32.6949 43.1892 37.928 41.9509 40.9333 38.2928L42.2355 39.3627C38.7428 43.6141 32.6625 45.0557 27.5259 42.4995C22.3894 39.9434 19.8728 34.2238 21.1579 28.8738L22.7967 29.2675Z" fill="#DBFF00"/>
</g>
</g>
<defs>
<clipPath id="clip0_811_116">
<rect width="55.4978" height="55.4978" fill="white" transform="translate(11.0234) rotate(11.4564)"/>
</clipPath>
</defs>
</svg>
