<svg width="292" height="254" viewBox="0 0 292 254" fill="none" xmlns="http://www.w3.org/2000/svg">
<path d="M127.199 253.673C131.513 216.867 89.2124 193.487 60.1432 216.611L45.2573 228.452C71.8521 201.563 49.2296 156.494 11.8953 161.988L0.558206 163.656L20.256 158.514C63.4554 147.238 75.4232 91.4894 40.5634 63.9186C83.9179 89.7574 139.792 62.2538 146.043 11.9964L147.188 2.79786C146.909 40.1938 193.661 57.0376 217.613 28.1709L240.988 9.72408e-05C219.56 31.4125 253.988 70.4191 287.783 53.0183L291.86 50.9195L265.435 67.8867C233.904 88.1322 246.039 136.701 283.293 139.364L269.152 140.025C223.734 142.15 198.192 193.509 224.039 230.739L222.842 229.439C192.843 196.868 138.48 210.642 127.199 253.673Z" fill="currentColor"/>
</svg>
